<svg id="Ebene_1" data-name="Ebene 1" xmlns="http://www.w3.org/2000/svg" viewBox="0 0 103.88 168.75"><defs><style>.cls-1{fill:#fff;}</style></defs><title>Facebook</title><path class="cls-1" d="M472.63,117c4.61,2,6.13,5.51,6,10.08-.2,7,0,14.09-.05,21.13,0,5.92-3.55,9.16-10,9.19-5.41,0-10.83,0-16.24.16-3.7.11-4.36.73-4.48,4.17-.15,3.94,0,7.9,0,12,.63,0,1.25.1,1.88.1h18c6,0,9.72,3.35,9.75,8.91q0,12.47,0,24.93c0,5.41-3.7,8.71-9.54,8.72H447.74v2.23q0,29.06,0,58.11c0,4.71-2.62,7.92-7.14,8.79a13.67,13.67,0,0,1-2.48.17q-13.85,0-27.67,0c-6.05,0-9.7-3.33-9.7-8.91q0-29.06,0-58.11v-2.27h-2.16c-5.06,0-10.12.05-15.17,0-4.74-.08-8.54-3.52-8.59-7.9q-.13-13.29,0-26.58c0-4.57,3.95-8,9-8.05,4.88,0,9.76,0,14.64,0h2.17c0-.74.08-1.37.1-2,.15-6.05-.1-12.13.54-18.13,2.06-19.44,16.45-33.32,37.34-36.45a4.9,4.9,0,0,0,.81-.29Zm-87,66.79c0,.73-.09,1.17-.09,1.6,0,6.49.05,13,0,19.48,0,1.45.55,1.72,2,1.7,5.53-.06,11.06,0,16.6,0,5.35,0,7.46,1.94,7.46,6.88v60.25c0,.69.07,1.37.1,2H437v-2.28q0-30.12,0-60.25c0-4.51,2.22-6.59,7.05-6.59,5.12,0,10.23,0,15.35,0h7.22V183.79h-2.1c-7.08,0-14.16,0-21.24,0-3.56,0-6.19-2.06-6.22-5.14-.06-6.43-.13-12.88.31-19.29.41-6.14,4.55-10.23,11.08-11.25a85.65,85.65,0,0,1,10.65-.62c2.84-.09,5.68,0,8.57,0v-21c-9,.19-17.89,0-26.69.67-9,.71-16.63,4.45-22.22,11.23a31.75,31.75,0,0,0-7.15,19.54c-.25,6.49-.1,13-.12,19.48,0,4.38-2.25,6.44-7,6.45-5.59,0-11.19,0-16.78,0Z" transform="translate(-374.75 -117)"/></svg>