<svg id="Ebene_1" data-name="Ebene 1" xmlns="http://www.w3.org/2000/svg" viewBox="0 0 169.7 169.68"><defs><style>.cls-1{fill:#fff;}</style></defs><title>Instagram</title><path class="cls-1" d="M462.24,286H390.66c-2.28-.37-4.58-.63-6.84-1.12a53,53,0,0,1-42.2-52.18q-.06-31.56,0-63.11a54.36,54.36,0,0,1,1.14-11.17c5.46-25.05,26.73-42.06,52.4-42.09q31.23,0,62.45,0c1.82,0,3.64.09,5.45.25A52.78,52.78,0,0,1,509.26,155c.93,3.39,1.36,6.91,2,10.36v71.58a12.24,12.24,0,0,0-.29,1.44c-2,21.22-17.65,40-38.25,45.56C469.31,284.85,465.74,285.31,462.24,286ZM357.52,201q0,15.48,0,31c0,21.84,16.18,38,38,38.07q30.9,0,61.79,0c21.84,0,38-16.19,38.06-38q0-30.88,0-61.78c0-21.86-16.18-38-38-38.06q-30.9,0-61.79,0c-21.85,0-38,16.18-38.06,38Q357.51,185.63,357.52,201Z" transform="translate(-341.59 -116.3)"/><path class="cls-1" d="M426.38,243.55a42.41,42.41,0,1,1,42.48-42.31A42.42,42.42,0,0,1,426.38,243.55Zm.15-68.91A26.51,26.51,0,1,0,453,201.3,26.51,26.51,0,0,0,426.53,174.64Z" transform="translate(-341.59 -116.3)"/><path class="cls-1" d="M477.71,155.52a5.67,5.67,0,1,1-5.73-5.64A5.73,5.73,0,0,1,477.71,155.52Z" transform="translate(-341.59 -116.3)"/></svg>