<svg id="Ebene_1" data-name="Ebene 1" xmlns="http://www.w3.org/2000/svg" viewBox="0 0 166.02 125.75"><defs><style>.cls-1{fill:#fff;}</style></defs><title>Youtube</title><path class="cls-1" d="M452,193,415.34,173a6.74,6.74,0,0,0-10,5.91v39.66a6.87,6.87,0,0,0,2.85,5.64,6.71,6.71,0,0,0,7.08.43L452,204.88A6.75,6.75,0,0,0,452,193ZM415.1,213.66V183.92l27.41,15Z" transform="translate(-343.44 -137.59)"/><path class="cls-1" d="M508.24,167.26v-.07c-.14-1.34-1.54-13.22-7.32-19.27-6.68-7.11-14.25-8-17.89-8.39l-.83-.1-.29,0c-21.95-1.59-55.09-1.81-55.42-1.81h-.06c-.33,0-33.48.22-55.63,1.81l-.29,0-.78.1a26.27,26.27,0,0,0-17.78,8.65c-5.51,6-7.1,17.61-7.26,18.91l0,.17c-.05.56-1.22,13.8-1.22,27.09v12.42c0,13.29,1.17,26.53,1.22,27.08v.09c.14,1.31,1.54,13,7.29,19,6.28,6.87,14.22,7.78,18.49,8.27.67.08,1.26.14,1.65.21l.39.06c12.67,1.2,52.4,1.8,54.09,1.82h.1c.33,0,33.47-.22,55.42-1.81l.29,0,.93-.11A25.74,25.74,0,0,0,501,252.94c5.5-6,7.09-17.61,7.26-18.92l0-.17c.05-.55,1.22-13.79,1.22-27.08V194.35C509.46,181.06,508.29,167.82,508.24,167.26Zm-8.51,39.51c0,12.3-1.07,25-1.18,26.13-.41,3.21-2.09,10.56-4.77,13.48-4.13,4.55-8.38,5-11.48,5.33l-1,.11c-21.23,1.54-53.12,1.77-54.59,1.78-1.65,0-40.8-.62-53.09-1.76-.63-.1-1.31-.18-2-.26-3.64-.42-8.62-1-12.45-5.2l-.09-.1c-2.63-2.74-4.26-9.62-4.68-13.34-.07-.88-1.17-13.7-1.17-26.17V194.35c0-12.29,1.07-24.94,1.17-26.13.49-3.77,2.2-10.69,4.77-13.48,4.26-4.69,8.76-5.21,11.73-5.55l.79-.1c21.54-1.54,53.67-1.77,54.82-1.78s33.26.24,54.61,1.78l.86.11c3.05.34,7.67.87,11.91,5.39l0,0c2.64,2.74,4.27,9.74,4.68,13.53.07.83,1.18,13.68,1.18,26.18Z" transform="translate(-343.44 -137.59)"/></svg>